<svg width="51" height="50" viewBox="0 0 51 50" fill="none" xmlns="http://www.w3.org/2000/svg">
<g clip-path="url(#clip0_17_184)">
<path d="M45.073 0H37.4514H32.0414C29.0471 0 26.6313 2.4328 26.6313 5.41V7.62164C26.6313 10.6159 29.0642 13.0316 32.0414 13.0316C35.0356 13.0316 37.4514 15.4644 37.4514 18.4416C37.4514 21.4188 39.8842 23.8517 42.8614 23.8517H45.073C48.0672 23.8517 50.483 21.4188 50.483 18.4416V13.0316V5.41C50.5 2.4328 48.0672 0 45.073 0Z" fill="white"/>
<path d="M45.073 26.1313H42.8614C39.8671 26.1313 37.4514 28.5642 37.4514 31.5414C37.4514 34.5186 35.0186 36.9514 32.0414 36.9514C29.0471 36.9514 26.6313 39.3842 26.6313 42.3614V44.573C26.6313 47.5672 29.0642 49.983 32.0414 49.983H37.4514H45.073C48.0672 49.983 50.483 47.5502 50.483 44.573V36.9514V31.5414C50.5 28.5471 48.0672 26.1313 45.073 26.1313Z" fill="white"/>
<path d="M18.9587 36.9684C15.9644 36.9684 13.5487 34.5356 13.5487 31.5584C13.5487 28.5812 11.1159 26.1484 8.13865 26.1484H5.92702C2.9328 26.1314 0.5 28.5472 0.5 31.5414V36.9514V44.573C0.5 47.5673 2.9328 49.983 5.91 49.983H13.5316H18.9416C21.9359 49.983 24.3517 47.5502 24.3517 44.573V42.3614C24.3687 39.3842 21.9359 36.9684 18.9587 36.9684Z" fill="white"/>
<path d="M18.9587 0H13.5316H5.91C2.9328 0 0.5 2.4328 0.5 5.41V13.0316V18.4416C0.5 21.4359 2.9328 23.8517 5.91 23.8517H8.12164C11.1159 23.8517 13.5316 21.4188 13.5316 18.4416C13.5316 15.4644 15.9644 13.0316 18.9416 13.0316C21.9359 13.0316 24.3517 10.5988 24.3517 7.62164V5.41C24.3687 2.4328 21.9359 0 18.9587 0Z" fill="white"/>
</g>
<defs>
<clipPath id="clip0_17_184">
<rect width="50" height="50" fill="white" transform="translate(0.5)"/>
</clipPath>
</defs>
</svg>
