<svg width="576" height="72" viewBox="0 0 576 72" fill="none" xmlns="http://www.w3.org/2000/svg">
<path d="M45.0512 0C40.7768 0 37.3282 3.45458 37.3282 7.68221V10.8227C37.3282 15.0745 40.8011 18.5049 45.0512 18.5049C49.3256 18.5049 52.7743 21.9595 52.7743 26.1871C52.7743 30.4389 56.2473 33.8693 60.4974 33.8693H63.6546C67.929 33.8693 71.3777 30.4148 71.3777 26.1871V7.68221C71.3777 3.45458 67.9047 0 63.6303 0H45.0512Z" fill="#2C3532"/>
<path d="M45.0269 52.4951C40.7525 52.4951 37.3039 55.9496 37.3039 60.1773V63.3178C37.3039 67.5696 40.7768 71 45.0269 71H63.6303C67.9047 71 71.3534 67.5454 71.3534 63.3178V44.8129C71.3534 40.5611 67.8804 37.1307 63.6303 37.1307H60.4731C56.1987 37.1307 52.75 40.5852 52.75 44.8129C52.7743 49.0405 49.3013 52.4951 45.0269 52.4951Z" fill="#2C3532"/>
<path d="M10.8803 37.1065H7.72307C3.47295 37.1065 0 40.5369 0 44.7887V63.2936C0 67.5454 3.47295 70.9758 7.72307 70.9758H26.3264C30.6008 70.9758 34.0495 67.5213 34.0495 63.2936V60.1531C34.0495 55.9013 30.5765 52.4709 26.3264 52.4709C22.052 52.4709 18.6034 49.0163 18.6034 44.7887C18.6034 40.5369 15.1547 37.1065 10.8803 37.1065Z" fill="#2C3532"/>
<path d="M7.72307 0C3.47295 0 0 3.45458 0 7.68221V26.1871C0 30.4389 3.47295 33.8693 7.72307 33.8693H10.8803C15.1547 33.8693 18.6034 30.4148 18.6034 26.1871C18.6034 21.9354 22.0763 18.5049 26.3264 18.5049C30.6008 18.5049 34.0495 15.0504 34.0495 10.8227V7.68221C34.0738 3.45458 30.6008 0 26.3507 0H7.72307Z" fill="#2C3532"/>
<path d="M109.872 57.1092V57.7373H105.111V70.6376H104.431V57.7373H99.6713V57.1092H109.872Z" fill="#2C3532"/>
<path d="M152.883 63.5352H160.339V64.1875H152.883V70.0095H160.8V70.6376H152.203V57.1092H160.8V57.7373H152.883V63.5352Z" fill="#2C3532"/>
<path d="M98.967 0.555631H116.672V39.5706H98.967V0.555631Z" fill="#2C3532"/>
<path d="M121.165 0.555631H138.87L177.971 22.8534V0.555631H195.675V39.5706H177.971L138.87 17.2729V39.5706H121.165V0.555631Z" fill="#2C3532"/>
<path d="M228.511 13.9391H200.168V0.555631H274.679V13.9391H246.215V39.5706H228.511V13.9391Z" fill="#2C3532"/>
<path d="M353.707 20.0752C353.707 30.8255 344.915 40.1504 334.108 40.1504H298.82C288.012 40.1504 279.196 30.8496 279.196 20.0752V0.555631H296.901V20.0752C296.901 23.1432 299.427 25.6557 302.511 25.6557H330.416C333.501 25.6557 336.026 23.1432 336.026 20.0752V0.555631H353.731V20.0752H353.707Z" fill="#2C3532"/>
<path d="M417.604 0C428.412 0 437.228 9.30078 437.228 20.0752C437.228 30.8255 428.436 40.1504 417.604 40.1504H376.706C365.899 40.1504 357.083 30.8496 357.083 20.0752C357.083 9.32494 365.874 0 376.706 0H417.604ZM380.349 14.4947C377.265 14.4947 374.739 17.0071 374.739 20.0752C374.739 23.1432 377.265 25.6557 380.349 25.6557H413.961C417.046 25.6557 419.571 23.1432 419.571 20.0752C419.571 17.0071 417.046 14.4947 413.961 14.4947H380.349Z" fill="#2C3532"/>
<path d="M443.251 17.5869H453.475V32.3957H482.109V40.1262H443.251V17.5869Z" fill="#2C3532"/>
<path d="M513.293 17.5869L531.653 40.1504H520.117L517.494 36.9374H497.531L494.908 40.1504H483.372L501.732 17.5869H513.293ZM502.801 30.4631H512.248L507.512 24.6652L502.801 30.4631Z" fill="#2C3532"/>
<path d="M532.916 17.5869H567.888C572.648 17.5869 575.976 19.8336 575.976 24.0371C575.976 26.2355 574.931 27.8782 573.159 28.8687C574.931 29.8591 575.976 31.5019 575.976 33.7002C575.976 37.8796 572.648 40.1504 567.888 40.1504H532.916V17.5869ZM543.165 23.3848V25.9697H564.343C565.241 25.9697 565.775 25.4866 565.775 24.6894C565.775 23.8921 565.265 23.409 564.343 23.409H543.165V23.3848ZM543.165 34.3283H564.343C565.241 34.3283 565.775 33.8452 565.775 33.048C565.775 32.2508 565.265 31.7676 564.343 31.7676H543.165V34.3283Z" fill="#2C3532"/>
<path d="M202.014 66.7482C201.65 65.8544 201.455 64.8881 201.455 63.8734C201.455 62.8346 201.65 61.8925 202.014 60.9986C202.378 60.1048 202.888 59.3559 203.52 58.7278C204.151 58.0997 204.88 57.6165 205.73 57.2783C206.58 56.916 207.479 56.7469 208.426 56.7469C209.834 56.7469 211.121 57.1092 212.263 57.834C213.404 58.5587 214.279 59.5492 214.886 60.8054L214.327 61.1194C213.793 59.984 212.992 59.066 211.923 58.4137C210.879 57.7615 209.713 57.4233 208.426 57.4233C207.576 57.4233 206.75 57.5924 205.997 57.9064C205.244 58.2205 204.564 58.6553 204.006 59.211C203.447 59.7666 202.986 60.443 202.646 61.2644C202.306 62.0857 202.136 62.9554 202.136 63.8976C202.136 64.8397 202.306 65.7094 202.646 66.5308C202.986 67.3522 203.447 68.0286 204.006 68.5842C204.564 69.1398 205.244 69.5747 205.997 69.8887C206.75 70.2028 207.576 70.3719 208.426 70.3719C209.737 70.3719 210.927 70.0337 211.996 69.3331C213.064 68.6325 213.866 67.7145 214.4 66.5308L214.983 66.7965C214.424 68.1011 213.55 69.1398 212.36 69.8887C211.17 70.6618 209.859 71.0483 208.426 71.0483C207.479 71.0483 206.58 70.8792 205.73 70.5168C204.88 70.1545 204.151 69.6713 203.52 69.0674C202.888 68.3909 202.378 67.6421 202.014 66.7482Z" fill="#2C3532"/>
<path d="M254.57 70.6376V57.1092H255.25V63.5352H264.673V57.1092H265.353V70.6376H264.673V64.1875H255.25V70.6376H254.57Z" fill="#2C3532"/>
<path d="M306.3 70.6376V57.1092H307.223L316.403 69.7196V57.1092H317.083V70.6376H316.184L306.98 57.834V70.6376H306.3Z" fill="#2C3532"/>
<path d="M356.548 63.8251C356.548 62.8105 356.718 61.8442 357.083 60.9745C357.447 60.0806 357.933 59.3317 358.54 58.7278C359.147 58.1239 359.876 57.6407 360.726 57.2783C361.576 56.916 362.45 56.7469 363.397 56.7469C364.32 56.7469 365.219 56.916 366.069 57.2783C366.919 57.6407 367.647 58.1239 368.254 58.7278C368.862 59.3317 369.347 60.0806 369.712 60.9745C370.076 61.8683 370.246 62.8105 370.246 63.8251C370.246 64.8639 370.076 65.8302 369.712 66.7241C369.347 67.6179 368.862 68.3909 368.254 68.9949C367.647 69.5988 366.919 70.1062 366.069 70.4685C365.219 70.8309 364.344 71 363.397 71C362.474 71 361.576 70.8309 360.726 70.4685C359.876 70.1062 359.147 69.623 358.54 68.9949C357.933 68.3668 357.447 67.6179 357.083 66.7241C356.743 65.8302 356.548 64.8639 356.548 63.8251ZM357.228 63.8251C357.228 64.7673 357.398 65.637 357.714 66.4583C358.054 67.2797 358.491 67.9561 359.05 68.5359C359.608 69.0915 360.264 69.5264 361.017 69.8404C361.77 70.1545 362.571 70.3236 363.397 70.3236C364.247 70.3236 365.024 70.1545 365.777 69.8404C366.53 69.5264 367.186 69.0915 367.744 68.5359C368.303 67.9803 368.74 67.2797 369.08 66.4583C369.42 65.637 369.566 64.7673 369.566 63.8251C369.566 62.9071 369.396 62.0374 369.08 61.2161C368.74 60.4188 368.303 59.7424 367.744 59.1868C367.186 58.6312 366.53 58.1963 365.777 57.8823C365.024 57.5682 364.223 57.3991 363.397 57.3991C362.547 57.3991 361.77 57.5682 361.017 57.8823C360.264 58.1963 359.608 58.6312 359.05 59.1868C358.491 59.7424 358.054 60.4188 357.714 61.2161C357.398 62.0374 357.228 62.9071 357.228 63.8251Z" fill="#2C3532"/>
<path d="M411.508 70.0095H419.426V70.6376H410.828V57.1092H411.508V70.0095Z" fill="#2C3532"/>
<path d="M460.008 63.8251C460.008 62.8105 460.178 61.8442 460.543 60.9745C460.907 60.0806 461.393 59.3317 462 58.7278C462.607 58.1239 463.335 57.6407 464.186 57.2783C465.036 56.916 465.91 56.7469 466.857 56.7469C467.78 56.7469 468.678 56.916 469.529 57.2783C470.379 57.6407 471.107 58.1239 471.714 58.7278C472.321 59.3317 472.807 60.0806 473.171 60.9745C473.536 61.8683 473.706 62.8105 473.706 63.8251C473.706 64.8639 473.536 65.8302 473.171 66.7241C472.807 67.6179 472.321 68.3909 471.714 68.9949C471.107 69.5988 470.379 70.1062 469.529 70.4685C468.678 70.8309 467.804 71 466.857 71C465.934 71 465.036 70.8309 464.186 70.4685C463.335 70.1062 462.607 69.623 462 68.9949C461.393 68.3668 460.907 67.6179 460.543 66.7241C460.178 65.8302 460.008 64.8639 460.008 63.8251ZM460.688 63.8251C460.688 64.7673 460.858 65.637 461.174 66.4583C461.514 67.2797 461.951 67.9561 462.51 68.5359C463.068 69.0915 463.724 69.5264 464.477 69.8404C465.23 70.1545 466.031 70.3236 466.857 70.3236C467.707 70.3236 468.484 70.1545 469.237 69.8404C469.99 69.5264 470.646 69.0915 471.204 68.5359C471.763 67.9803 472.2 67.2797 472.54 66.4583C472.88 65.637 473.026 64.7673 473.026 63.8251C473.026 62.9071 472.856 62.0374 472.54 61.2161C472.2 60.4188 471.763 59.7424 471.204 59.1868C470.646 58.6312 469.99 58.1963 469.237 57.8823C468.484 57.5682 467.683 57.3991 466.857 57.3991C466.007 57.3991 465.23 57.5682 464.477 57.8823C463.724 58.1963 463.068 58.6312 462.51 59.1868C461.951 59.7424 461.514 60.4188 461.174 61.2161C460.858 62.0374 460.688 62.9071 460.688 63.8251Z" fill="#2C3532"/>
<path d="M512.904 61.2402C512.564 62.0374 512.418 62.9313 512.418 63.8493C512.418 64.7673 512.588 65.6611 512.904 66.4583C513.244 67.2555 513.681 67.9561 514.24 68.5117C514.798 69.0674 515.454 69.5022 516.207 69.8163C516.96 70.1303 517.761 70.2994 518.587 70.2994C520.287 70.2994 521.72 69.7438 522.934 68.6325C524.124 67.5213 524.756 66.096 524.804 64.3324H518.32V63.6318H525.436C525.46 63.7285 525.46 63.8976 525.46 64.0909C525.46 65.3954 525.144 66.5791 524.537 67.6179C523.93 68.6567 523.08 69.4781 522.036 70.082C520.991 70.6618 519.85 70.9517 518.587 70.9517C517.664 70.9517 516.766 70.7826 515.916 70.4202C515.065 70.0578 514.337 69.5747 513.73 68.9707C513.123 68.3426 512.637 67.5937 512.273 66.6999C511.908 65.8061 511.738 64.8397 511.738 63.8251C511.738 62.8105 511.908 61.8442 512.273 60.9503C512.637 60.0565 513.123 59.3076 513.73 58.6795C514.337 58.0514 515.065 57.5682 515.916 57.23C516.766 56.8676 517.64 56.6985 518.587 56.6985C519.923 56.6985 521.137 57.0609 522.23 57.8098C523.323 58.5587 524.149 59.5733 524.707 60.8537L524.076 61.0953C523.566 59.9599 522.837 59.0419 521.841 58.3654C520.846 57.689 519.753 57.3508 518.563 57.3508C517.713 57.3508 516.936 57.5199 516.183 57.834C515.43 58.148 514.774 58.5829 514.215 59.1385C513.681 59.7666 513.244 60.443 512.904 61.2402Z" fill="#2C3532"/>
<path d="M570.171 65.9752L564.634 57.1334H565.46L570.487 65.2021L575.174 57.1334H576L570.851 65.9752V70.6618H570.171V65.9752Z" fill="#2C3532"/>
</svg>
