<svg width="250" height="21" viewBox="0 0 250 21" fill="none" xmlns="http://www.w3.org/2000/svg">
<g clip-path="url(#clip0_17_127)">
<path d="M0 0.793701H9.27859V20.718H0V0.793701Z" fill="white"/>
<path d="M11.6332 0.793701H20.9118L41.4036 12.1808V0.793701H50.6822V20.718H41.4036L20.9118 9.33092V20.718H11.6332V0.793701Z" fill="white"/>
<path d="M67.903 7.62841H53.0369V0.793701H92.0858V7.62841H77.1816V20.718H67.903V7.62841Z" fill="white"/>
<path d="M133.502 10.762C133.502 16.252 128.895 21.0141 123.231 21.0141H104.725C99.0607 21.0141 94.4405 16.2643 94.4405 10.762V0.793701H103.719V10.762C103.719 12.3288 105.043 13.6119 106.659 13.6119H121.296C122.913 13.6119 124.236 12.3288 124.236 10.762V0.793701H133.515V10.762H133.502Z" fill="white"/>
<path d="M166.989 0.51001C172.653 0.51001 177.273 5.25977 177.273 10.7621C177.273 16.2521 172.666 21.0142 166.989 21.0142H145.555C139.892 21.0142 135.271 16.2644 135.271 10.7621C135.271 5.2721 139.879 0.51001 145.555 0.51001H166.989ZM147.465 7.91223C145.848 7.91223 144.524 9.19528 144.524 10.7621C144.524 12.3289 145.848 13.6119 147.465 13.6119H165.08C166.696 13.6119 168.02 12.3289 168.02 10.7621C168.02 9.19528 166.696 7.91223 165.08 7.91223H147.465Z" fill="white"/>
<path d="M180.43 9.49133H185.788V17.0539H200.794V21.0018H180.43V9.49133Z" fill="white"/>
<path d="M217.137 9.49133L226.759 21.0141H220.713L219.339 19.3733H208.876L207.502 21.0141H201.456L211.078 9.49133H217.137ZM211.638 16.067H216.589L214.108 13.1061L211.638 16.067Z" fill="white"/>
<path d="M227.434 21.0018V9.49133H245.762C248.256 9.49133 250 10.6387 250 12.7853C250 13.908 249.453 14.7469 248.524 15.2527C249.453 15.7585 250 16.5975 250 17.7201C250 19.8544 248.256 21.0141 245.762 21.0141H227.434V21.0018ZM232.792 12.4522V13.7723H243.891C244.362 13.7723 244.642 13.5255 244.642 13.1184C244.642 12.7113 244.374 12.4646 243.891 12.4646H232.792V12.4522ZM232.792 18.0409H243.891C244.362 18.0409 244.642 17.7942 244.642 17.387C244.642 16.9799 244.374 16.7332 243.891 16.7332H232.792V18.0409Z" fill="white"/>
</g>
<defs>
<clipPath id="clip0_17_127">
<rect width="250" height="20.4918" fill="white" transform="translate(0 0.51001)"/>
</clipPath>
</defs>
</svg>
